<svg width="72" height="90" viewBox="0 0 72 90" fill="none" xmlns="http://www.w3.org/2000/svg">
  <defs>
    <style>
      @keyframes run-bob {
        0%,100% { transform: translateY(0px) rotate(-8deg); }
        50%      { transform: translateY(-5px) rotate(-10deg); }
      }
      @keyframes leg-a {
        0%,100% { transform-origin: 12px 0; transform: rotate(30deg); }
        50%      { transform-origin: 12px 0; transform: rotate(-40deg); }
      }
      @keyframes leg-b {
        0%,100% { transform-origin: 12px 0; transform: rotate(-40deg); }
        50%      { transform-origin: 12px 0; transform: rotate(30deg); }
      }
      @keyframes arm-a {
        0%,100% { transform-origin: 8px 0; transform: rotate(-40deg); }
        50%      { transform-origin: 8px 0; transform: rotate(20deg); }
      }
      @keyframes arm-b {
        0%,100% { transform-origin: 8px 0; transform: rotate(20deg); }
        50%      { transform-origin: 8px 0; transform: rotate(-40deg); }
      }
      @keyframes run-glow {
        0%,100% { filter: drop-shadow(0 0 0px #c2773a00); }
        50%      { filter: drop-shadow(0 2px 8px #c2773a66); }
      }
      .quokka-body { animation: run-bob 0.35s ease-in-out infinite, run-glow 0.7s ease-in-out infinite; }
      .leg-b { animation: leg-b 0.35s ease-in-out infinite; }
      .leg-a { animation: leg-a 0.35s ease-in-out infinite; }
      .arm-b { animation: arm-b 0.35s ease-in-out infinite; }
      .arm-a { animation: arm-a 0.35s ease-in-out infinite; }
    </style>
  </defs>
  
  <g class="quokka-body">
    {/* Tail */}
    <path d="M52 58 Q64 50 61 64 Q59 72 51 67" stroke="#c2773a" strokeWidth="5" strokeLinecap="round" fill="none"/>
    
    {/* Body – leaned forward */}
    <ellipse cx="34" cy="60" rx="18" ry="15" fill="#c2773a" transform="rotate(-15 34 60)"/>
    
    {/* Belly */}
    <ellipse cx="34" cy="62" rx="10" ry="9" fill="#e8c49a" opacity="0.5" transform="rotate(-15 34 62)"/>
    
    {/* Back leg */}
    <g class="leg-b">
      <line x1="26" y1="72" x2="14" y2="84" stroke="#c2773a" strokeWidth="7" strokeLinecap="round"/>
      <ellipse cx="11" cy="86" rx="8" ry="4" fill="#c2773a" transform="rotate(-10 11 86)"/>
    </g>
    
    {/* Front leg */}
    <g class="leg-a">
      <line x1="38" y1="72" x2="50" y2="82" stroke="#c2773a" strokeWidth="7" strokeLinecap="round"/>
      <ellipse cx="53" cy="84" rx="8" ry="4" fill="#c2773a" transform="rotate(10 53 84)"/>
    </g>
    
    {/* Back arm */}
    <g class="arm-b">
      <line x1="22" y1="54" x2="10" y2="62" stroke="#c2773a" strokeWidth="6" strokeLinecap="round"/>
    </g>
    
    {/* Front arm */}
    <g class="arm-a">
      <line x1="40" y1="52" x2="54" y2="58" stroke="#c2773a" strokeWidth="6" strokeLinecap="round"/>
    </g>
    
    {/* Neck */}
    <ellipse cx="30" cy="44" rx="9" ry="7" fill="#c2773a" transform="rotate(-15 30 44)"/>
    
    {/* Head */}
    <circle cx="26" cy="28" r="20" fill="#c2773a"/>
    
    {/* Ears */}
    <ellipse cx="16" cy="12" rx="8" ry="12" fill="#c2773a" transform="rotate(-10 16 12)"/>
    <ellipse cx="16" cy="12" rx="5" ry="8" fill="#e8c49a" transform="rotate(-10 16 12)"/>
    <ellipse cx="36" cy="10" rx="8" ry="12" fill="#c2773a" transform="rotate(10 36 10)"/>
    <ellipse cx="36" cy="10" rx="5" ry="8" fill="#e8c49a" transform="rotate(10 36 10)"/>
    
    {/* Nose */}
    <ellipse cx="28" cy="34" rx="5" ry="3.5" fill="#8b4513"/>
    
    {/* Eyes – happy, wide open */}
    <circle cx="19" cy="26" r="4" fill="#0a0f0d"/>
    <circle cx="33" cy="25" r="4" fill="#0a0f0d"/>
    <circle cx="20" cy="24.5" r="1.5" fill="white"/>
    <circle cx="34" cy="23.5" r="1.5" fill="white"/>
    
    {/* Happy brows */}
    <path d="M14 21 Q19 18 24 21" stroke="#0a0f0d" strokeWidth="2" strokeLinecap="round" fill="none"/>
    <path d="M28 20 Q33 17 38 20" stroke="#0a0f0d" strokeWidth="2" strokeLinecap="round" fill="none"/>
    
    {/* Big smile */}
    <path d="M18 32 Q26 39 34 32" stroke="#0a0f0d" strokeWidth="2" fill="none" strokeLinecap="round"/>
    
    {/* Cheeks */}
    <ellipse cx="13" cy="31" rx="5" ry="3" fill="#e8c49a" opacity="0.6"/>
    <ellipse cx="39" cy="30" rx="5" ry="3" fill="#e8c49a" opacity="0.6"/>
  </g>
</svg>